HIERARCHY
ROOT Hips
{
	OFFSET 0.000000 0.000000 0.000000
	CHANNELS 6 Xposition Yposition Zposition Zrotation Yrotation Xrotation 
	JOINT LHipJoint
	{
		OFFSET 0.000000 0.000000 0.000000
		CHANNELS 3 Zrotation Yrotation Xrotation
		JOINT LeftUpLeg
		{
			OFFSET 1.363060 -1.794630 0.839290
			CHANNELS 3 Zrotation Yrotation Xrotation
			JOINT LeftLeg
			{
				OFFSET 2.448110 -6.726130 0.000000
				CHANNELS 3 Zrotation Yrotation Xrotation
				JOINT LeftFoot
				{
					OFFSET 2.562200 -7.039590 0.000000
					CHANNELS 3 Zrotation Yrotation Xrotation
					JOINT LeftToeBase
					{
						OFFSET 0.157640 -0.433110 2.322550
						CHANNELS 3 Zrotation Yrotation Xrotation
						End Site
						{
							OFFSET 0.000000 0.000000 0.000000
						}
					}
				}
			}
		}
	}
	JOINT RHipJoint
	{
		OFFSET 0.000000 0.000000 0.000000
		CHANNELS 3 Zrotation Yrotation Xrotation
		JOINT RightUpLeg
		{
			OFFSET -1.305520 -1.794630 0.839290
			CHANNELS 3 Zrotation Yrotation Xrotation
			JOINT RightLeg
			{
				OFFSET -2.542530 -6.985550 0.000000
				CHANNELS 3 Zrotation Yrotation Xrotation
				JOINT RightFoot
				{
					OFFSET -2.568260 -7.056230 0.000000
					CHANNELS 3 Zrotation Yrotation Xrotation
					JOINT RightToeBase
					{
						OFFSET -0.164730 -0.452590 2.363150
						CHANNELS 3 Zrotation Yrotation Xrotation
						End Site
						{
							OFFSET 0.000000 0.000000 0.000000
						}
					}
				}
			}
		}
	}
	JOINT LowerBack
	{
		OFFSET 0.000000 0.000000 0.000000
		CHANNELS 3 Zrotation Yrotation Xrotation
		JOINT Spine
		{
			OFFSET 0.028270 2.035590 -0.193380
			CHANNELS 3 Zrotation Yrotation Xrotation
			JOINT Spine1
			{
				OFFSET 0.056720 2.048850 -0.042750
				CHANNELS 3 Zrotation Yrotation Xrotation
				JOINT Neck
				{
					OFFSET 0.000000 0.000000 0.000000
					CHANNELS 3 Zrotation Yrotation Xrotation
					JOINT Neck1
					{
						OFFSET -0.054170 1.746240 0.172020
						CHANNELS 3 Zrotation Yrotation Xrotation
						JOINT Head
						{
							OFFSET 0.104070 1.761360 -0.123970
							CHANNELS 3 Zrotation Yrotation Xrotation
							End Site
							{
								OFFSET 0.000000 0.000000 0.000000
							}
						}
					}
				}
				JOINT LeftShoulder
				{
					OFFSET 0.000000 0.000000 0.000000
					CHANNELS 3 Zrotation Yrotation Xrotation
					JOINT LeftArm
					{
						OFFSET 3.362410 1.200890 -0.311210
						CHANNELS 3 Zrotation Yrotation Xrotation
						JOINT LeftForeArm
						{
							OFFSET 4.983000 -0.000000 -0.000000
							CHANNELS 3 Zrotation Yrotation Xrotation
							JOINT LeftHand
							{
								OFFSET 3.483560 -0.000000 -0.000000
								CHANNELS 3 Zrotation Yrotation Xrotation
								JOINT LeftFingerBase
								{
									OFFSET 0.000000 0.000000 0.000000
									CHANNELS 3 Zrotation Yrotation Xrotation
									JOINT LeftHandIndex1
									{
										OFFSET 0.715260 -0.000000 -0.000000
										CHANNELS 3 Zrotation Yrotation Xrotation
										End Site
										{
											OFFSET 0.000000 0.000000 0.000000
										}
									}
								}
								JOINT LThumb
								{
									OFFSET 0.000000 0.000000 0.000000
									CHANNELS 3 Zrotation Yrotation Xrotation
									End Site
									{
										OFFSET 0.000000 0.000000 0.000000
									}
								}
							}
						}
					}
				}
				JOINT RightShoulder
				{
					OFFSET 0.000000 0.000000 0.000000
					CHANNELS 3 Zrotation Yrotation Xrotation
					JOINT RightArm
					{
						OFFSET -3.136600 1.374050 -0.404650
						CHANNELS 3 Zrotation Yrotation Xrotation
						JOINT RightForeArm
						{
							OFFSET -5.241900 -0.000000 -0.000000
							CHANNELS 3 Zrotation Yrotation Xrotation
							JOINT RightHand
							{
								OFFSET -3.444170 -0.000000 -0.000000
								CHANNELS 3 Zrotation Yrotation Xrotation
								JOINT RightFingerBase
								{
									OFFSET 0.000000 0.000000 0.000000
									CHANNELS 3 Zrotation Yrotation Xrotation
									JOINT RightHandIndex1
									{
										OFFSET -0.622530 -0.000000 -0.000000
										CHANNELS 3 Zrotation Yrotation Xrotation
										End Site
										{
											OFFSET 0.000000 0.000000 0.000000
										}
									}
								}
								JOINT RThumb
								{
									OFFSET 0.000000 0.000000 0.000000
									CHANNELS 3 Zrotation Yrotation Xrotation
									End Site
									{
										OFFSET 0.000000 0.000000 0.000000
									}
								}
							}
						}
					}
				}
			}
		}
	}
}
MOTION
Frames: 12
Frame Time: 0.008333
0.198611 17.771897 0.519359 -3.161173 4.110004 8.416615 1.813606 5.306062 2.120098 -14.033281 -26.614330 -3.703747 -0.673156 4.006970 15.138080 -1.672649 10.004757 -8.912405 1.037400 -6.477900 -18.177400 -3.950446 -5.671785 1.107557 24.453151 9.396035 2.156120 0.438446 1.244708 2.297950 0.717375 -5.713973 -5.927190 -0.423500 4.176700 -11.574300 -0.556607 0.403538 -4.413192 5.368415 0.467509 -1.750706 1.239021 0.498751 -2.406789 -17.645496 -13.401670 -14.680961 13.739990 -16.357418 11.960220 6.927600 -7.745000 12.286900 -5.620229 -9.237929 0.650282 -90.379721 -0.200517 32.913232 12.753767 -12.348132 -1.400825 1.572891 2.471267 23.839407 11.022165 25.963031 4.191400 -7.125000 0.000000 0.000000 -18.893200 52.390800 -3.539900 3.072222 10.082104 2.972345 87.635795 -1.823309 25.091340 -21.766993 20.689407 -2.348569 -1.172711 0.993342 29.913397 -12.533255 11.978000 -2.273900 7.125000 0.000000 0.000000 11.269000 -18.131700 7.346100 
0.202476 17.776473 0.517833 -3.189101 4.080064 8.446714 1.817229 5.296298 2.112601 -14.039701 -26.554028 -3.827100 -0.653275 4.068370 15.302272 -1.733442 10.277180 -8.829054 1.411500 -7.514400 -21.248500 -3.956427 -5.669617 1.107655 24.466307 9.433533 2.145586 0.436847 1.245303 2.299717 0.698022 -5.587299 -5.998036 -0.359400 3.851200 -10.658500 -0.421071 0.413037 -4.403428 5.304177 0.472267 -1.793917 1.166492 0.498165 -2.412624 -17.613730 -13.404068 -14.716812 13.707330 -16.367915 11.996325 6.904400 -7.747400 12.301900 -5.610435 -9.243820 0.650057 -90.359570 -0.258915 32.739522 12.680010 -12.241728 -1.378151 1.590564 2.432156 23.913311 11.212920 25.523712 4.185200 -7.125000 0.000000 0.000000 -18.533400 52.028400 -3.300600 3.083378 10.084099 2.974613 87.666847 -1.864768 25.243430 -21.783039 20.700206 -2.344265 -1.143807 0.968886 29.790761 -12.236320 11.852537 -2.195800 7.125000 0.000000 0.000000 11.453400 -18.270500 7.435400 
0.204815 17.777999 0.515393 -3.199228 4.067935 8.416659 1.816036 5.298410 2.115889 -14.043550 -26.581540 -3.796381 -0.652734 4.071183 15.313700 -1.723443 10.243722 -8.896083 1.350100 -7.355900 -20.774100 -3.954344 -5.670418 1.109772 24.470369 9.427965 2.195973 0.437500 1.246373 2.300654 0.696426 -5.584348 -6.029990 -0.378700 3.952400 -10.942700 -0.385934 0.407281 -4.365745 5.320750 0.463136 -1.757272 1.146582 0.494294 -2.435353 -17.579389 -13.392811 -14.712722 13.648182 -16.350571 11.967926 6.875100 -7.742600 12.272600 -5.609317 -9.247316 0.641829 -90.417174 -0.303152 32.336849 12.631366 -12.171166 -1.360541 1.606004 2.397587 24.231306 11.267548 25.215249 4.151800 -7.125000 0.000000 0.000000 -18.354500 51.763700 -3.145300 3.081952 10.082259 2.973150 87.670794 -1.874051 25.357280 -21.785426 20.701513 -2.343357 -1.136779 0.961478 29.725095 -12.157604 11.817951 -2.175200 7.125000 0.000000 0.000000 11.502400 -18.308200 7.458700 
0.205628 17.778202 0.512647 -3.206760 4.057428 8.427684 1.815908 5.298817 2.116389 -14.034546 -26.602361 -3.806248 -0.654255 4.071237 15.314834 -1.720125 10.242265 -8.965090 1.314200 -7.261200 -20.491700 -3.953098 -5.670461 1.112565 24.476840 9.444945 2.184188 0.437812 1.246311 2.300095 0.700550 -5.610851 -6.011971 -0.360900 3.859500 -10.681700 -0.375419 0.399819 -4.388698 5.344715 0.453122 -1.730238 1.139180 0.489221 -2.422667 -17.531156 -13.377032 -14.680810 13.607551 -16.330288 11.923704 6.853300 -7.735400 12.234000 -5.611305 -9.249150 0.637051 -90.464507 -0.312101 32.080928 12.626250 -12.163152 -1.356413 1.618168 2.381706 24.414882 11.325855 25.101719 4.152600 -7.125000 0.000000 0.000000 -18.256500 51.671600 -3.085400 3.078218 10.083182 2.971317 87.664761 -1.872026 25.483782 -21.777828 20.691474 -2.340253 -1.122387 0.975081 29.626351 -12.029466 11.956268 -2.171000 7.125000 0.000000 0.000000 11.582300 -18.198900 7.541300 
0.206544 17.776473 0.509291 -3.212979 4.063802 8.426233 1.815318 5.301194 2.113741 -14.018283 -26.634639 -3.774002 -0.660956 4.047837 15.248534 -1.704994 10.161506 -8.927385 1.202500 -6.957400 -19.589100 -3.952349 -5.670210 1.109504 24.483598 9.442105 2.176347 0.438419 1.245797 2.299423 0.706400 -5.650838 -5.992684 -0.344500 3.771400 -10.434500 -0.366567 0.394345 -4.331484 5.360424 0.450132 -1.773338 1.133280 0.486041 -2.459786 -17.556402 -13.374671 -14.606591 13.640715 -16.324247 11.871168 6.873100 -7.735800 12.202400 -5.611270 -9.245685 0.634223 -90.499655 -0.321231 31.845763 12.583036 -12.099763 -1.341273 1.614555 2.360616 24.593183 11.240876 24.880710 4.085200 -7.125000 0.000000 0.000000 -18.239000 51.465700 -2.988100 3.075974 10.086816 2.973096 87.681238 -1.895769 25.553347 -21.749395 20.658554 -2.333602 -1.115553 0.987831 29.552591 -11.964657 12.069995 -2.175100 7.125000 0.000000 0.000000 11.623200 -18.105600 7.593600 
0.207255 17.774846 0.506240 -3.191063 4.061791 8.439203 1.816591 5.300467 2.100299 -14.034884 -26.666576 -3.735044 -0.668256 4.023365 15.178531 -1.688979 10.079010 -8.889898 1.077600 -6.598200 -18.530400 -3.948370 -5.666266 1.097151 24.451928 9.443389 2.169100 0.438668 1.243225 2.298519 0.707769 -5.669252 -6.003507 -0.361800 3.864100 -10.694600 -0.405216 0.363224 -4.161383 5.412724 0.426622 -1.967368 1.154210 0.470012 -2.560827 -17.632915 -13.339294 -14.525254 13.659671 -16.269497 11.880603 6.907000 -7.720300 12.186600 -5.616624 -9.239528 0.634611 -90.575449 -0.242149 31.445011 12.529994 -12.017850 -1.320862 1.615856 2.325683 24.872119 11.176080 24.537463 4.004400 -7.125000 0.000000 0.000000 -18.155900 51.155100 -2.832300 3.078094 10.087481 2.989923 87.667692 -2.017172 25.693457 -21.761850 20.666599 -2.337091 -1.111895 0.989239 29.535385 -11.930977 12.094976 -2.172400 7.125000 0.000000 0.000000 11.643900 -18.086000 7.612800 
0.207560 17.775456 0.504308 -3.167228 4.047878 8.470911 1.819585 5.299891 2.088755 -14.061208 -26.665187 -3.723194 -0.680591 3.992367 15.086995 -1.717844 10.194514 -8.799609 1.135000 -6.765900 -19.023800 -3.945565 -5.663182 1.089848 24.417105 9.466939 2.139618 0.437816 1.240563 2.297345 0.706343 -5.659143 -5.994508 -0.392400 4.022500 -11.140000 -0.447236 0.340703 -4.072723 5.461353 0.410421 -2.106833 1.174275 0.458722 -2.613239 -17.684880 -13.310872 -14.451113 13.646258 -16.224213 11.879806 6.920200 -7.709500 12.164900 -5.622369 -9.236400 0.635628 -90.650996 -0.166870 31.267649 12.520288 -12.001415 -1.315436 1.612933 2.315271 24.993940 11.107981 24.450811 3.966500 -7.125000 0.000000 0.000000 -18.181100 51.071300 -2.798200 3.076339 10.087034 3.001118 87.634768 -2.095234 25.803655 -21.751123 20.646695 -2.337364 -1.118631 1.000878 29.575756 -12.004641 12.169420 -2.198100 7.125000 0.000000 0.000000 11.598300 -18.013400 7.600800 
0.207154 17.776270 0.501867 -3.120920 4.014257 8.480355 1.818145 5.300387 2.085774 -14.116002 -26.639675 -3.711893 -0.691332 3.962474 15.001952 -1.755434 10.344209 -8.671744 1.207100 -6.970200 -19.627100 -3.948445 -5.662509 1.088689 24.366325 9.500208 2.130926 0.436589 1.238850 2.296096 0.706999 -5.652814 -5.959171 -0.403900 4.080300 -11.302600 -0.484366 0.347762 -4.030682 5.433548 0.420923 -2.134792 1.193837 0.464827 -2.638476 -17.726345 -13.311856 -14.407772 13.686854 -16.219164 11.841901 6.945200 -7.709700 12.148100 -5.620785 -9.233345 0.635637 -90.658865 -0.160557 31.251450 12.512333 -11.989779 -1.313239 1.603720 2.318876 25.026673 10.999815 24.479666 3.934800 -7.125000 0.000000 0.000000 -18.286500 51.083400 -2.820900 3.078794 10.087194 3.005574 87.609503 -2.125253 25.977848 -21.746371 20.637333 -2.340361 -1.132431 0.998811 29.404922 -12.084323 12.176329 -2.215200 7.125000 0.000000 0.000000 11.549700 -17.997700 7.571600 
0.207357 17.776168 0.498613 -3.081054 3.970456 8.471602 1.810308 5.300387 2.090972 -14.154510 -26.609729 -3.679072 -0.698448 3.939988 14.945172 -1.724316 10.211533 -8.733815 1.087500 -6.627800 -18.617200 -3.950798 -5.661858 1.089359 24.319318 9.537256 2.141032 0.436784 1.237646 2.295337 0.708496 -5.669126 -5.966343 -0.409000 4.105700 -11.374200 -0.500156 0.361652 -3.988460 5.385246 0.435397 -2.113709 1.202701 0.474226 -2.666140 -17.720128 -13.314583 -14.386404 13.720998 -16.220292 11.779947 6.957600 -7.708600 12.120400 -5.618360 -9.230889 0.634087 -90.666519 -0.220210 30.930956 12.505444 -11.980323 -1.307680 1.579772 2.323534 25.548768 10.534487 24.581838 3.793500 -7.125000 0.000000 0.000000 -18.730400 51.114500 -2.908200 3.083872 10.087271 3.004732 87.624530 -2.120331 26.005977 -21.748346 20.643420 -2.341000 -1.128582 1.000401 29.382260 -12.051523 12.196847 -2.211700 7.125000 0.000000 0.000000 11.569900 -17.983000 7.589300 
0.208476 17.776778 0.496782 -3.015434 3.936999 8.477561 1.797525 5.301270 2.100305 -14.222806 -26.590703 -3.630002 -0.704510 3.916963 14.891751 -1.682459 10.033344 -8.812818 0.921300 -6.115300 -17.119200 -3.956619 -5.663142 1.093267 24.246829 9.571007 2.125914 0.437478 1.235866 2.293810 0.715362 -5.723455 -5.962189 -0.427400 4.195600 -11.627600 -0.498975 0.373622 -4.021722 5.283560 0.438590 -2.038958 1.204678 0.478958 -2.650732 -17.692505 -13.317346 -14.411094 13.764907 -16.221344 11.728892 6.968600 -7.702500 12.106300 -5.609787 -9.231951 0.632331 -90.656934 -0.301867 30.557943 12.513820 -11.986336 -1.299129 1.546146 2.311540 26.185145 9.943797 24.481589 3.577200 -7.125000 0.000000 0.000000 -19.199700 50.952900 -2.907700 3.093768 10.088372 2.996593 87.666780 -2.057468 25.868168 -21.747855 20.652074 -2.335642 -1.103559 1.008625 29.591576 -11.895141 12.237093 -2.186300 7.125000 0.000000 0.000000 11.665600 -17.966000 7.659200 
0.208781 17.776677 0.495562 -3.012724 3.922652 8.454890 1.795913 5.305704 2.109846 -14.236262 -26.584718 -3.586520 -0.708082 3.907355 14.868208 -1.681889 10.032749 -8.830104 0.897900 -6.039300 -16.898600 -3.957775 -5.665420 1.099327 24.248923 9.582472 2.137036 0.438171 1.236503 2.293379 0.721912 -5.766214 -5.940240 -0.456600 4.334600 -12.019800 -0.486085 0.384150 -4.063901 5.273839 0.446038 -1.936126 1.199738 0.484703 -2.627869 -17.699378 -13.326631 -14.413668 13.792582 -16.223838 11.664501 6.977600 -7.702000 12.084500 -5.606780 -9.234113 0.621805 -90.679859 -0.354298 30.408543 12.458174 -11.906128 -1.284323 1.579492 2.274707 26.287326 10.289477 24.147528 3.641500 -7.125000 0.000000 0.000000 -18.764500 50.702000 -2.719100 3.095341 10.090298 2.993186 87.679513 -2.016953 25.707583 -21.780754 20.697954 -2.338824 -1.078421 1.021407 29.801421 -11.746561 12.322958 -2.169300 7.125000 0.000000 0.000000 11.755800 -17.907300 7.736600 
0.207866 17.776168 0.491494 -2.970687 3.886583 8.454436 1.790898 5.303351 2.111584 -14.269279 -26.574250 -3.604877 -0.707344 3.909306 14.879098 -1.664453 9.969272 -8.907768 0.832100 -5.819500 -16.261500 -3.958949 -5.664365 1.102010 24.197252 9.618546 2.126857 0.436889 1.235242 2.292759 0.717840 -5.733409 -5.935446 -0.430000 4.208100 -11.662900 -0.530035 0.392016 -4.036109 5.243672 0.454070 -1.905777 1.226844 0.492023 -2.644363 -17.667200 -13.320594 -14.408930 13.772534 -16.210166 11.591944 6.964700 -7.696200 12.042700 -5.604649 -9.234036 0.618500 -90.648863 -0.337248 30.759119 12.401369 -11.827587 -1.279566 1.640422 2.251611 25.685048 11.178088 23.890186 3.894800 -7.125000 0.000000 0.000000 -17.895900 50.582600 -2.532200 3.102063 10.086897 2.995981 87.679657 -2.022550 25.622444 -21.837265 20.770119 -2.350957 -1.066235 1.025401 29.904223 -11.679999 12.358446 -2.161700 7.125000 0.000000 0.000000 11.795100 -17.882800 7.770100 
